<svg xmlns="http://www.w3.org/2000/svg" width="40" height="40"><path fill-rule="evenodd" clip-rule="evenodd" fill="#010101" d="M10.12 15.546c-2.217 3.777-4.186 7.133-6.231 10.621-.327-.482-.589-.858-.765-1.104 1.644-2.804 3.219-5.482 4.789-8.162.433-.735.85-1.476 1.325-2.191.581-.86 1.002-.843 1.589.114 1.439 2.345 2.838 4.725 4.267 7.075.307.517.661 1.009 1.134 1.721 2.657-2.891 3.713-6.595 6.174-9.7 1.419 1.521 2.268 3.275 3.412 4.808 1.131 1.526 2.314 3.01 3.634 4.725 1.085-1.724 1.998-3.444 3.165-4.98 1.102-1.452 1.379-3.562 3.479-4.598 0 .521.083.807-.018.983-2.026 3.397-4.062 6.79-6.043 10.07-1.356.231-1.603-.763-2.077-1.424-1.778-2.468-3.53-4.947-5.445-7.664l-1.696 2.854c-1.124 1.82-2.152 3.716-3.416 5.43-1.007 1.366-1.524 1.168-2.364-.297-1.516-2.65-3.11-5.263-4.913-8.281"/></svg>