<svg xmlns="http://www.w3.org/2000/svg" width="40" height="40"><path fill-rule="evenodd" clip-rule="evenodd" fill="#010101" d="M3.47 14.508c1.46-1.619 4.44-1.996 6.091-1.059.805.46 1.582.997 2.268 1.607.403.36.786.918.858 1.434.319 2.141-.103 4.062-1.565 5.811-1.019 1.218-1.762 2.669-2.557 4.068-.418.733-.37 1.554-.017 2.344.629 1.411 1.064 2.882 2.641 3.692 1.769.912 3.094.954 4.694-.602 1.993-1.936 3.584-4.105 4.236-6.965.607-2.614 1.681-5.119 2.492-7.692.304-.983.439-2.024.68-3.031.43-1.793.918-3.576 1.315-5.376.173-.783.232-1.589.308-2.383.056-.521.25-1.006.795-.926.594.085.482.553.363 1.075-.791 3.781-1.516 7.583-2.291 11.359-.37 1.787-.33 1.965 1.487 3.08.981-.78 2.051-1.545 3.021-2.423l4.378-4.161c1.048-.947 2.075-1.98 3.633-2.241.451.937-.077 1.451-.707 1.693-1.312.492-2.134 1.521-3.087 2.443-1.818 1.75-3.722 3.403-5.611 5.076-2.507 2.217-4.76 4.638-6.7 7.374-1.065 1.492-2.265 2.963-3.668 4.114-1.883 1.558-3.816 1.66-6.057.312-2.769-1.671-3.877-6.533-1.786-9.327.865-1.147 1.601-2.394 2.449-3.549.843-1.148.565-2.431.557-3.684l-.032-.166c-.383-1.109-3.411-2.763-4.583-2.493-.787.186-1.562.429-2.354.58-.401.079-.837.016-1.251.016"/></svg>