<svg xmlns="http://www.w3.org/2000/svg" width="40" height="40"><path fill-rule="evenodd" clip-rule="evenodd" fill="#010101" d="M9.837 28.152c.398-2.668.73-5.342 1.21-7.99.545-2.998 1.152-5.989 1.876-8.949.403-1.641.931-3.293 1.698-4.785 1.57-3.045 5.121-3.976 7.893-.606.866 1.066 1.505 2.377 2.027 3.669.658 1.623 1.057 3.35 1.611 5.019.377 1.104.854 2.168 1.259 3.264.76 2.073.87 4.301 1.521 6.402.407 1.348.818 2.696 1.127 4.071.168.729.196 1.507.151 2.258-.122 2.692-2.204 3.666-4.225 4.629-.68.32-1.467.49-2.219.556-1.982.183-3.973.414-5.948.326-1.11-.049-2.211-.673-3.295-1.098-.539-.209-1.006-.613-1.548-.816-2.037-.742-2.948-2.217-2.932-4.333.006-.537 0-1.06 0-1.593l-.206-.024zm10.379-2.406c1.966-1.819 3.91-3.39 5.421-5.453.764-1.048.858-1.871.37-3.05-.827-1.995-1.402-4.093-2.183-6.11-.54-1.409-1.121-2.834-1.925-4.113-.505-.799-1.358-1.445-2.178-1.981-1.006-.657-1.8-.487-2.736.27-1.749 1.404-2.479 3.355-2.945 5.442-.521 2.282-.939 4.591-1.521 6.862-.246.971-.153 1.688.624 2.336 1.536 1.274 3.036 2.586 4.564 3.857.8.667 1.644 1.274 2.509 1.94m-.389 1.607c-2.294 1.868-4.759 3.628-7.815 4.841.694.302 1.256.405 1.613.727 2.052 1.852 4.444 2.221 7.058 1.806l1.236-.049c1.157-.17 2.352-.262 3.45-.607.97-.309 2.02-.704 2.369-1.837-2.585-1.591-5.122-3.161-7.911-4.881m-7.864-7.018c-.511 3.61-1.187 6.881-.576 10.548 3.164-.546 5.378-2.469 7.713-4.412-2.37-2.033-4.617-3.964-7.137-6.136m9.037 6.165c2.39 2.024 4.936 3.318 7.967 4.517-.081-1.271-.01-2.269-.227-3.197-.542-2.315-1.216-4.604-1.889-7.102-.928 1.067-1.739 2.112-2.675 3.036-.947.94-2.024 1.757-3.176 2.746"/></svg>