<svg xmlns="http://www.w3.org/2000/svg" width="40" height="40"><path fill-rule="evenodd" clip-rule="evenodd" fill="#010101" d="M12.587 4.412c1.254-.298 2.272-.438 3.219-.786 3.635-1.342 8.261-.873 11.327 1.292-.533.982-1.077 1.993-1.63 2.986-1.304 2.291-1.34 4.7-.725 7.19.635 2.492 1.998 4.658 3.054 6.964 1.613 3.548 1.955 7.188 0 10.723-1.22 2.185-2.839 4.043-5.402 4.8-2.172.641-4.245.177-6.052-.875-2.78-1.615-4.86-3.906-5.469-7.252-.481-2.603.465-4.821 1.678-7.016 1.533-2.735 3.034-5.505 3.066-8.725.034-3.132-.794-6.039-2.828-8.507-.18-.222-.176-.588-.238-.794m2.726 2.268c1.684 3.043 1.964 5.985 1.576 9.017-.099.752-.26 1.534-.58 2.21-1.059 2.239-2.256 4.418-3.293 6.676-1.331 2.916-1.088 5.742 1.056 8.198.897 1.011 1.979 1.918 3.116 2.653 2.751 1.771 5.723.973 7.685-1.034 3.272-3.342 3.522-8.608 1.383-12.512-.944-1.708-1.789-3.474-2.472-5.289-1.025-2.756-1.367-5.583-.131-8.412.131-.315.163-.67.312-1.332-2.976 1.302-5.647.32-8.652-.175"/></svg>