<svg xmlns="http://www.w3.org/2000/svg" width="40" height="40"><path fill-rule="evenodd" clip-rule="evenodd" fill="#010101" d="M5.234 35.962c-1.354-1.686-.891-3.545-1.055-5.281-.123-1.337-.072-2.704-.127-4.047-.063-1.488.11-1.701 1.601-1.859 2.08-.215 4.166-.438 6.527-.684-1.033-.488-1.835-.879-2.653-1.247-1.279-.583-2.329-1.377-2.956-2.69-.35-.719-.836-1.38-1.274-2.043-2.136-3.159-1.506-8.821 1.183-11.403 1.818-1.745 3.955-2.913 6.521-3.646 4.182-1.2 10.142 2.667 11.388 5.87.454 1.179.846 2.386 1.473 3.523 0-.987.018-1.967-.006-2.956-.035-1.729-.076-3.462-.152-5.199-.046-1.08.267-1.427 1.311-1.478 1.66-.086 3.324-.138 4.965-.359 1.615-.215 3.036.338 4.532.586 0 1.589-.014 3.002 0 4.426.05 4.257.089 8.521.176 12.779.085 4.578.214 9.152.328 13.729.007.492-.075.982-.097 1.479-.07.982-.679 1.223-1.54 1.184-2.286-.091-4.565-.151-6.842-.264-.731-.037-1.464-.201-2.193-.301-.303-.044-.634-.146-.914-.083-3.026.757-6.045.062-9.069 0-2.59-.047-5.174-.034-7.765-.037-1.111-.009-2.218.001-3.362.001m-.065-22.814c.139 5.383 3.829 9.786 9.768 10.063 4.697.226 9.625-3.908 9.576-9.973-.045-4.299-4.784-9.277-9.097-9.343-5.436-.077-10.573 4.148-10.247 9.253m20.762 12.343c-2.232.174-4.311.334-6.396.498-.675.057-1.354.194-2.032.182-1.838-.043-3.674-.167-5.518-.226-1.477-.037-2.968-.037-4.45-.056-.842-.003-1.69 0-2.266 0 0 2.488-.053 4.721.013 6.957.051 1.829.724 2.358 2.433 2.187 3.636-.357 7.263-.442 10.919-.01 2.372.281 4.824.487 7.297-.469v-9.063zm9.486-21.722c-1.623 0-2.968-.063-4.308.016-1.389.075-2.765.28-4.273.437.16 6.573.322 13.232.474 19.905 6.756.612 5.481.82 8.007-.551-.577-6.483.064-12.966.1-19.807m-8.259 21.706c0 1.702-.023 3.117.006 4.534.017 1.282.026 2.572.128 3.847.083.937.681 1.418 1.642 1.411 1.868-.02 3.737.026 5.606-.02 1.217-.026 1.302-.146 1.327-1.472.027-1.798.027-3.588.016-5.387-.003-.554-.033-1.119-.126-1.669-.179-1.038-.475-1.187-1.536-1.079-.972.097-1.96.15-2.935.124-1.287-.038-2.578-.176-4.128-.289m-1.063-11.316l-.385-.113c-.743 5.991-3.999 9.568-9.989 10.561 3.494.521 6.844-.191 10.232-.413.068-.592.133-.955.133-1.316.012-2.909.009-5.816.009-8.719"/></svg>