<svg xmlns="http://www.w3.org/2000/svg" width="40" height="40"><path fill-rule="evenodd" clip-rule="evenodd" fill="#010101" d="M17.491 4.972c.305-.674.493-1.947 1.922-1.715 1.487.244 3.476-.393 3.911 2.035.083.438.505.931.908 1.168.84.48 1.769.805 2.57 1.152 1.081-.477 2.116-1.139 3.218-1.316.64-.104 1.654.422 2.053.98.527.752.847 1.816.832 2.74-.012.904-.551 1.803-.964 3.035.076.19.3.725.547 1.248.248.535.528 1.064.784 1.588 2.496.539 3.309 1.379 3.414 3.562.079 1.625-.999 2.857-3.15 3.551-.275.884-.532 1.834-.866 2.75-.326.902-.469 1.673.08 2.617.654 1.127.139 3.141-.939 3.911-.465.33-1.237.471-1.807.375-.758-.138-1.443-.594-2.302-.972-1.281.741-2.645 1.506-3.983 2.319-.235.147-.405.479-.492.77-.439 1.518-1.549 2.349-2.996 2.454-1.309.087-2.352-.692-2.967-1.936-.129-.262-.378-.516-.642-.672-1.12-.661-2.297-1.251-3.422-1.939-.614-.381-1.139-.429-1.844-.21-.658.21-1.448.255-2.114.095-1.047-.266-1.815-.981-2.339-1.985-.66-1.236.398-1.944.724-2.809-.667-1.619-1.297-3.196-1.995-4.746-.144-.337-.495-.591-.763-.865-1.475-1.484-1.636-3.139-.078-4.378 1.758-1.407 1.526-3.528 2.322-5.271.137-.301-.188-.857-.38-1.252-.618-1.283-.453-2.417.55-3.434 1.008-1.003 2.135-1.552 3.544-.906 1.212.552 2.246.121 3.307-.417 1.02-.52 2.097-.956 3.357-1.527m9.659 25.711c-.83-3.102.243-4.546 4.028-4.146l1.045-2.928c.336-.897.235-1.664-.602-2.273-1.027-.754-1.031-1.8-.646-2.856.264-.729.701-1.396 1.096-2.157-.493-1.742-1.102-3.297-3.234-3.903-1.528-.44-2.924-1.408-2.364-3.56-1.058-.566-2.078-1.111-3.067-1.643-2.054 3.465-4.425 2.249-6.388-.677-1.453.605-2.92 1.227-4.083 1.717-.404 1.487-.523 2.851-1.142 3.919-.752 1.297-2.276.961-3.548.85-.534 1.187-1.047 2.316-1.553 3.422 1.428.818 2.818 1.467 2.825 3.305.008 1.927-1.25 2.804-2.965 3.408.613 1.222 1.159 2.326 1.693 3.38 2.945-.502 4.5.934 4.771 4.907 1.138.664 2.302 1.349 3.552 2.089 1.36-2.443 3.11-3.475 5.733-2.086.271.424.628.965 1.086 1.656 1.292-.833 2.473-1.599 3.763-2.424"/></svg>