<svg xmlns="http://www.w3.org/2000/svg" width="40" height="40"><path fill-rule="evenodd" clip-rule="evenodd" fill="#010101" d="M10.528 2.017c4.812.053 8.169 3.376 8.073 6.797-.153 5.347-3.896 9.251-9.055 8.979-3.719-.183-7.063-4.138-7.068-8.63-.004-3.76 3.858-7.195 8.05-7.146m6.77 6.867c.151-2.849-3.042-5.872-5.894-5.481-2.216.305-4.192 1.171-5.883 2.74-1.363 1.281-1.641 2.712-1.182 4.401.173.632.398 1.257.62 1.87.85 2.205 4.075 4.039 6.409 3.704 3.272-.466 5.484-3.669 5.93-7.234"/><path fill-rule="evenodd" clip-rule="evenodd" fill="#010101" d="M29.158 37.039c-3.638.598-7.429-4.993-7.334-8.037.146-4.644 3.094-7.583 7.939-7.503 3.836.062 7.563 3.916 7.713 7.744.113 3.377-4.125 8.157-8.318 7.796m.032-14.075c-2.095.008-4.627 1.995-5.408 4.214-.803 2.295-.19 5.062 1.702 6.575.93.742 1.687 1.843 3.142 1.846 3.318.005 6.79-2.969 7.264-6.177.231-1.548-.874-2.43-1.443-3.564-1.06-2.134-2.945-2.94-5.257-2.894"/><path fill-rule="evenodd" clip-rule="evenodd" fill="#010101" d="M30.926 16.863c-1.091.332-1.428.107-1.597-.664-.747-3.394-.977-6.822-.918-10.281.018-.879-.114-1.755-.044-2.615.02-.343.413-.648.647-.972.329.293.935.57.964.896.362 4.515.643 9.029.948 13.636"/><path fill-rule="evenodd" clip-rule="evenodd" fill="#010101" d="M10.152 22.547c1.135 1.558 1.11 2.969 1.208 4.316.193 2.634.296 5.275.371 7.907.022.848-.166 1.697-.259 2.588-1.296 0-1.484-.92-1.354-1.501.518-2.327-.332-4.512-.474-6.768-.115-1.611-.146-3.226-.117-4.837.002-.48.329-.956.625-1.705"/></svg>