<svg xmlns="http://www.w3.org/2000/svg" width="40" height="40"><path fill-rule="evenodd" clip-rule="evenodd" fill="#010101" d="M30.929 36.054c-.294-.179-.715-.297-.884-.556-.301-.477-.519-1.038-.699-1.587-1.511-4.491-2.998-8.996-4.593-13.819-4.363-.686-8.914-.669-13.567-.417-.151.325-.32.596-.391.896-.907 3.681-1.797 7.372-2.689 11.056-.276 1.122-.604 2.232-.886 3.353-.188.731-.577 1.146-1.604.945-.091-2.12 1.073-3.989 1.505-5.997.421-1.992 1.17-3.92 1.719-5.888.567-2.019.8-4.139 1.521-5.846 1.389 0 2.497-.019 3.6.006 3.406.062 6.817.152 10.486.236.489-1.24 1.01-2.653 1.585-4.05 1.398-3.388 2.8-6.78 4.223-10.156.479-1.145.924-1.375 1.687-1.026.8.371 1.141 1.236.686 2.124-.647 1.252-1.479 2.396-2.096 3.64-.8 1.609-1.471 3.292-2.215 4.931-.637 1.412-1.398 2.77-1.863 4.229-.269.852-.303 1.936-.044 2.794 1.218 3.993 2.562 7.951 3.88 11.915.182.539.528 1.026.731 1.56.166.442.22.93.328 1.402l-.42.255"/></svg>