<svg xmlns="http://www.w3.org/2000/svg" width="40" height="40"><path fill-rule="evenodd" clip-rule="evenodd" fill="#010101" d="M16.661 34.815c-2.707.453-5.345.98-8.173.152.628-2.652 1.355-5.152 1.793-7.702.484-2.882.755-5.801 1.026-8.715.038-.405-.33-.94-.646-1.265-1.166-1.164-2.4-2.269-3.702-3.488.292-.269.548-.521.816-.75 2.886-2.424 5.566-5.046 8.034-7.908.852-.987 1.917-1.78 2.963-2.736 1.16 1.055 2.157 1.899 3.069 2.812 1.118 1.129 2.141 2.347 3.255 3.481 1.19 1.204 2.419 2.375 3.66 3.536.783.734.872 1.894.159 2.641l-5.779 6.07c-.84.876-1.633 1.805-2.55 2.586-.608.521-1.403.811-2.006 1.143l-5.196-5.229-.335.181c.522 2.536.985 5.086 1.581 7.602.59 2.489 1.308 4.934 2.031 7.589"/></svg>