<svg xmlns="http://www.w3.org/2000/svg" width="40" height="40"><path fill-rule="evenodd" clip-rule="evenodd" fill="#010101" d="M9.278 32.63l-.487-5.24c.381 0 .743-.025 1.099.004 2.098.162 3.947-.878 4.878-2.739.747-1.503.512-2.983-.844-3.895-1.354-.917-2.793-1.797-4.313-2.388-3.46-1.352-5.835-3.774-7.501-6.99-.127-.256-.021-.624-.021-.966h34.945c.106.996-.474.917-1.007 1.003-4.165.69-7.89 2.191-10.53 5.719-1.434 1.908-1.94 3.969-.896 6.131.817 1.716 2.479 2.677 4.15 3.436 1.901.869 1.933.807 1.966 2.802.012.463.056.927.062 1.391.019.46.006.924.006 1.664-7.135.13-14.26.012-21.507.068"/></svg>