<svg xmlns="http://www.w3.org/2000/svg" width="40" height="40"><path fill-rule="evenodd" clip-rule="evenodd" fill="#010101" d="M36.326 4.952v31.587c-1.21.37-18.337.509-20.98.113-.681-1.497-.332-3.113-.349-4.686l.052-5.748c-.012-.648-.255-1.286-.464-2.235-1.605 2.604-2.932 5.014-4.512 7.237-1.557 2.195-2.814 4.675-5.387 6.563-.129-.911-.265-1.423-.261-1.948.036-5.735.132-11.483.147-17.222.009-4.074-.086-8.143-.121-12.215 0-.383.113-.772.227-1.52 3.955 4.856 6.929 9.916 10.181 14.894.065-1.754.161-3.511.196-5.267.032-1.766.37-3.631-.081-5.272-.401-1.501.098-2.744.077-4.343 7.064-.168 14.07-.13 21.275.062"/></svg>