<svg xmlns="http://www.w3.org/2000/svg" width="40" height="40"><path fill-rule="evenodd" clip-rule="evenodd" fill="#010101" d="M36.418 13.317v22.58c-10.92.131-21.774-.064-32.686.051-.126-.457-.348-.821-.309-1.156.703-5.162.146-10.355.266-15.529.049-1.856.181-3.713.246-5.564.03-.962.522-1.121 1.395-1.06 2.038.15 4.093.175 6.138.274 2.12.104 4.237.299 6.357.34 3.681.064 7.366.049 11.062.061 2.414.01 4.832.003 7.531.003m-14.528 11.687c.047-2.476-1.533-5.101-3.341-6.376-1.675-1.183-3.527-1.004-5.237-.778-2.104.287-3.824 1.494-4.294 3.835-.231 1.126-.63 2.271-.575 3.393.071 1.527.486 3.149 1.779 4.091 1.443 1.029 2.995 1.891 4.899 2.021 4.223.286 6.092-1.928 6.641-5.102.081-.443.101-.891.128-1.084"/><path fill-rule="evenodd" clip-rule="evenodd" fill="#010101" d="M20.619 3.119v6.72h-11.391c-1.007-2.214-.662-4.587-.581-6.919 2.308-.359 10.557-.24 11.972.199m-1.092.566h-9.586v4.965l9.108.683c.161-1.854.302-3.548.478-5.648"/></svg>