<svg xmlns="http://www.w3.org/2000/svg" width="40" height="40"><path d="M20.25 5.75c8.037.181 14.319 6.463 14.5 14.5.181 8.036-6.735 14.325-14.5 14.5-8.036.181-14.325-6.735-14.5-14.5-.181-8.037 6.735-14.326 14.5-14.5.966-.021.968-1.522 0-1.5-8.861.199-15.801 7.139-16 16-.199 8.86 7.439 15.808 16 16 8.86.199 15.808-7.439 16-16 .199-8.86-7.439-15.808-16-16-.968-.022-.966 1.479 0 1.5z"/><line stroke="#000" stroke-miterlimit="10" x1="10.25" y1="8.25" x2="30" y2="32" fill="none"/><line stroke="#000" stroke-miterlimit="10" x1="30" y1="8.5" x2="10.25" y2="32.25" fill="none"/><line stroke="#000" stroke-miterlimit="10" x1="20.25" y1="5" x2="20.25" y2="35.5" fill="none"/><line stroke="#000" stroke-miterlimit="10" x1="5" y1="20.25" x2="35.5" y2="20.25" fill="none"/></svg>