<svg xmlns="http://www.w3.org/2000/svg" width="40" height="40"><path fill-rule="evenodd" clip-rule="evenodd" fill="#010101" d="M35.299 4.812c-.148 1.218-.351 2.228-.376 3.241-.092 3.408-.226 6.821-.122 10.22.077 2.565.488 5.106.803 8.178-3.625 3.414-7.636 7.176-11.708 10.994-2.13-1.332-4.399-2.575-6.475-4.081-2.639-1.913-5.528-3.351-8.414-4.814-1.345-.671-2.664-1.413-3.94-2.198-1.12-.681-1.136-1.203-.107-2.062 2.072-1.721 4.169-3.407 6.256-5.11.956-.782 1.908-1.567 2.67-2.203 3.315 1.703 6.325 3.252 9.418 4.836.643-1.761.583-3.449.273-5.08-.191-1.013.141-1.574.787-2.189 1.651-1.573 3.304-3.147 4.881-4.787 1.458-1.514 2.826-3.116 4.236-4.677.543-.599 1.123-.937 1.818-.268m-10.431 29.648c.896-.604 1.484-.895 1.942-1.332 2.092-1.979 4.075-4.079 6.246-5.969.914-.799 1.048-1.577.994-2.66-.166-3.062-.263-6.126-.316-9.188-.052-2.744-.011-5.483-.011-8.459-2.96 3.057-5.804 5.987-8.855 9.143v18.465zm-19.338-9.063c1.512.815 2.752 1.499 4.064 2.216 2.722-2.456 5.389-4.874 8.18-7.396-.746-.386-1.462-.682-2.096-1.095-1.093-.707-2.069-.453-2.968.282-2.314 1.9-4.597 3.833-7.18 5.993"/></svg>