<svg xmlns="http://www.w3.org/2000/svg" width="40" height="40"><path fill-rule="evenodd" clip-rule="evenodd" fill="#010101" d="M21.091 14.25c.485.525.864 1.107 1.395 1.495 3.69 2.735 3.695 5.867 2.505 8.992-.417 1.092-.873 2.185-1.301 3.274-.941 2.412-.402 3.79 1.868 5.087 1.708.976 3.57 1.254 5.467 1.427.365.03.722.008 1.518.008-.517.534-.72.939-1.03 1.036-.571.183-1.202.267-1.812.258-3.039-.05-6.07-.188-9.101-.208-2.024-.016-3.905-.595-5.798-1.197-.229-.076-.462-.21-.635-.376-2.248-2.132-4.582-4.287-4.817-7.61-.173-2.46.05-4.983 1.159-7.257.889-1.814 2.269-3.263 4.287-3.86 2.164-.641 3.614-1.871 4.435-4.067.894-2.363 2.125-4.604 3.211-6.9.075-.166.118-.358.208-.517.336-.629.742-1.228 1.58-.926.857.305 1.013 1.07.79 1.827-.417 1.427-.873 2.851-1.446 4.212-.718 1.712-1.574 3.371-2.483 5.302"/></svg>