<svg xmlns="http://www.w3.org/2000/svg" width="40" height="40"><path fill-rule="evenodd" clip-rule="evenodd" fill="#010101" d="M34.234 31.086c.462 1.378.943 2.783 1.388 4.205.021.077-.326.271-.691.568-.457-1.083-.916-2.02-1.257-2.996-.417-1.224-.903-2.312-2.436-2.421-.278-.02-.532-.195-.803-.308l.273-.502 1.53-.421c-.462-.958-1.064-1.868-1.332-2.869-.352-1.315-1.988-.277-2.399-1.552l1.378-.786c-.454-.907-.896-1.79-1.334-2.653l-2.138-.524-.021-.363 1.563-.747-1.749-3.912c-.721-.424-1.713.295-2.126-.881.424-.236.854-.481 1.364-.773-.438-1.137-.868-2.281-1.302-3.424-.679-.081-1.238-.16-1.762-.226-.347-.945.488-.96.862-1.292-.092-1.544-.716-1.692-2.258-1.918-1.901-.282-2.255-.076-2.984 1.326.029.701 1.754.44.912 1.688l-1.621.098c-.575 1.071-1.172 2.188-1.709 3.194.634.435 1.158.791 1.658 1.129-.631 1.282-1.477.438-2.412.631l-1.669 3.456c.575.539 1.799.046 1.702 1.33-.815.177-1.881.118-2.436.626-.745.68-1.086 1.793-1.555 2.646.085.711 1.473.711.767 1.56-.283.338-.972.334-1.775.575l-.87 1.872c-.336.73-.668 1.458-1.028 2.269l1.754.542c.111.964-.505 1.129-1.105 1.107-1.32-.047-2.097.436-2.319 1.812-.077.466-.524.867-.829 1.349l-1.059-.677c.371-.74.705-1.42 1.031-2.083l-1.765-.904c.803-.335 1.257-.479 1.679-.705.542-.286 1.271-.508 1.557-.98.655-1.09 1.096-2.316 1.615-3.484-.655-.278-1.204-.503-1.896-.788.829-.999 1.795-.67 2.769-.941.518-.974 1.094-2.051 1.736-3.24l-1.976-.573c.126-.682.321-1.016 1.123-.913 1.407.169 1.414.101 2.057-1.227.397-.842.807-1.677 1.2-2.481-.66-.568-1.739.143-2.029-1.039.426-.579 1.062-.563 1.7-.479.757.099 1.214-.213 1.514-.907.39-.907.845-1.792 1.325-2.8-.807-.213-1.46-.383-2.182-.578.608-1.438 1.86-.549 2.876-1.16.286-1.039 1.438-2.056 1.033-3.667h4.87c.606 1.24 1.255 2.296 1.669 3.44.316.838.798 1.035 1.604 1.017.597-.013 1.204.145 1.92.232-.678 1.059-.678 1.059-2.371 1.107.051 1.338.91 2.346 1.389 3.72.737 0 1.504-.077 2.242.031.287.039.524.474.786.73-.303.222-.581.578-.909.638-.421.08-.888-.072-1.58-.156.614 1.491 1.145 2.772 1.702 4.105l3.258.251c-.313 1.817-1.566 1.06-2.536 1.2.024 1.277.962 2.028 1.354 3.021.704.036 1.357 0 1.979.141.3.069.522.476.783.728-.283.242-.524.606-.844.704-.348.105-.773-.049-1.48-.114.639 1.343 1.186 2.474 1.812 3.784l3.253.356c-.358 1.304-.358 1.304-2.44 1.276"/></svg>