<svg xmlns="http://www.w3.org/2000/svg" width="40" height="40"><path fill-rule="evenodd" clip-rule="evenodd" fill="#010101" d="M2.732 36.422c0-3.311.028-6.315-.014-9.324-.044-3.42-.177-6.831-.248-10.249-.028-1.272.784-2.147 1.657-2.837 3.625-2.843 7.122-5.825 10.409-9.061 1.344-1.322 2.915-1.88 4.776-1.796 1.06.048 2.123.009 3.265.009 1.918 1.456 3.98 2.912 5.916 4.518 2.432 2.019 4.827 4.093 7.076 6.309.556.548.595 1.736.648 2.645.09 1.499.018 3.014-.016 4.519-.055 2.845-.396 5.673-.112 8.52.162 1.699.211 3.406.343 5.104.116 1.494.033 1.664-1.486 1.645-3.099-.049-6.197-.225-9.294-.249-5.381-.041-10.76-.037-16.145.007-1.706.014-3.402.229-5.108.319-.558.03-1.103-.053-1.667-.079m23.257-20.965c-.93 0-1.405.012-1.88-.008-1.751-.068-3.505-.15-5.262-.228-.861-.041-1.497.28-2.181.878-3.026 2.681-6.143 5.264-9.218 7.899-.242.209-.399.519-.688.898 2.39-.095 4.577-.25 6.766-.253 1.476-.004 2.687-.489 3.768-1.448l5.086-4.521c1.112-.986 2.226-1.984 3.609-3.217m-18.775 10.511c1.388 1.427 2.563 2.673 3.778 3.873 1.659 1.633 3.339 3.242 5.026 4.842.207.203.518.425.792.42 2.304-.021 4.62-.097 7.169-.158-2.47-3.497-5.262-6.367-8.279-9.038-.25-.226-.681-.389-1.013-.376-2.393.11-4.781.27-7.473.437m26.56 9.172c-.339-.464-.49-.725-.701-.938-2.657-2.705-5.311-5.409-8.014-8.081-.288-.284-.761-.525-1.161-.534-2.188-.056-4.362-.031-6.538-.031l-.036.314c2.238 2.481 4.456 4.992 6.762 7.403.719.756 1.668 1.674 2.593 1.777 2.217.262 4.502.09 7.095.09m.253-19.446l-.08-.357c-.657 0-1.327-.014-1.981 0-1.051.021-2.124.188-3.15.044-.802-.11-1.312.111-1.863.591-2.021 1.803-4.062 3.572-6.089 5.376-1.039.937-2.048 1.933-3.211 3.036 2.127.113 3.991.217 5.849.303.875.038 1.508-.301 2.139-.969 1.462-1.559 3.053-2.996 4.601-4.469 1.246-1.198 2.522-2.369 3.785-3.555m-30.042 9.267l.389.334c1.947-1.483 3.833-3.059 5.651-4.692 1.877-1.692 3.976-3.167 5.901-5.438-2.776.172-5.133.308-7.481.478-.293.021-.643.182-.851.384-1.079 1.054-2.152 2.126-3.177 3.229-.244.25-.408.665-.413 1.006-.038 1.565-.019 3.13-.019 4.699m-.038 1.275c0 .749.042 1.321-.005 1.884-.232 3.013-.243 3.018 1.74 5.183.389.413.814.785 1.225 1.181.144.129.275.35.424.354 2.265.051 4.533.608 7.192-.066-3.088-3.05-5.977-5.896-8.852-8.729l-1.724.193m30.939 8.035c-.352-2.976.436-5.884-.38-8.759-2.644.102-5.163.198-8.044.306 2.977 2.992 5.703 5.719 8.424 8.453m-.114-17.609c-3.001 2.708-5.91 4.871-8.562 7.868 3.163.185 5.882.185 8.562-.487v-7.381zm-28.757 18.555c-.884-.896-1.529-1.545-2.248-2.266.185 2.202.185 2.202 2.248 2.266m0-19.154c-2.156-.101-2.156-.101-1.874 1.759l1.874-1.759"/></svg>