<svg xmlns="http://www.w3.org/2000/svg" width="40" height="40"><path fill-rule="evenodd" clip-rule="evenodd" fill="#010101" d="M3.876 4.475h31.889c.037 2.159.037 4.248.115 6.325.13 3.484.33 6.968.43 10.454.062 1.9-.119 3.811-.039 5.705.111 2.619.375 5.229.588 8.052-2.395.083-4.979.174-7.846-.037.29-.827.464-1.435.713-2.014 1.36-3.146 2.722-6.278 4.123-9.413.655-1.467.525-2.803-.478-4.038-2.249-2.803-4.435-5.656-6.791-8.362-1.837-2.113-3.904-4.033-5.901-6.076-1.806.599-3.285 1.569-4.461 2.945-2.289 2.698-4.548 5.418-6.82 8.142-.887 1.062-1.751 2.134-2.661 3.176-.872 1.012-1.095 2.068-.532 3.317 1.257 2.785 2.497 5.578 3.715 8.387.661 1.528 1.269 3.085 1.991 4.805h-7.571c-.07-.657-.178-1.337-.189-2.009-.068-3.151-.115-6.303-.17-9.46-.04-2.225-.105-4.449-.117-6.678-.016-3.79.012-7.581.012-11.366v-1.855z"/></svg>