<svg xmlns="http://www.w3.org/2000/svg" width="398" height="178"><g fill="#fff"><path d="M342.062 148.486c-.406 0-.718.156-.935.472-.215.313-.323 1.242-.323 2.784v13.982c0 1.738.07 2.812.213 3.219.143.408.473.611.99.611.529 0 .869-.234 1.018-.703.147-.469.222-1.586.222-3.349v-13.762c0-1.394-.076-2.285-.23-2.673-.155-.385-.472-.581-.955-.581zM27.368 163.303h2.681c-.394-3.392-.79-7.584-1.186-12.578-.794 5.734-1.293 9.925-1.495 12.578zM297.229 148.486c-.408 0-.72.156-.936.472s-.322 1.242-.322 2.784v13.982c0 1.738.068 2.812.211 3.219.143.408.473.611.99.611.529 0 .869-.234 1.018-.703.147-.469.222-1.586.222-3.349v-13.762c0-1.394-.076-2.285-.229-2.673-.158-.385-.475-.581-.954-.581zM-1 0v179h399v-179h-399zm312.397 3.398h69.585v25.688h-18.909v102.669h-31.843v-102.669h-18.833v-25.688zm-17.681 102.194h23.069v26.163h-23.069v-26.163zm-107.551 0h23.067v26.163h-23.067v-26.163zm-69.869-102.194h46.024l18.208 128.356h-32.542l-1.709-23.07h-11.391l-1.915 23.07h-32.92l16.245-128.356zm-45.787 102.194h23.069v26.163h-23.069v-26.163zm-66.419-102.194h57.643v25.688h-25.801v24.339h24.439v24.418h-24.439v28.224h27.918v25.688h-59.76v-128.357zm14.386 170.596h-13.503v-29.947h12.985v5.993h-5.198v5.68h4.865v5.697h-4.865v6.585h5.716v5.992zm12.194 0l-.418-5.383h-2.786l-.468 5.383h-8.051l3.972-29.947h11.255l4.454 29.947h-7.958zm25.679-2.942c-.5 1.013-1.464 1.859-2.895 2.546-1.431.684-3.096 1.024-4.995 1.024-2.084 0-3.863-.394-5.336-1.185-1.474-.787-2.439-1.793-2.895-3.015-.457-1.221-.685-2.953-.685-5.196v-1.961h7.232v3.644c0 1.122.102 1.844.305 2.165.204.318.564.479 1.082.479s.903-.202 1.156-.61c.252-.406.379-1.012.379-1.812 0-1.763-.241-2.916-.722-3.459-.494-.541-1.708-1.447-3.644-2.719-1.936-1.281-3.219-2.213-3.848-2.793s-1.15-1.381-1.563-2.405c-.413-1.022-.619-2.33-.619-3.921 0-2.293.292-3.971.878-5.03.585-1.062 1.532-1.89 2.839-2.489 1.307-.598 2.885-.896 4.735-.896 2.022 0 3.746.327 5.17.979 1.424.653 2.368 1.478 2.83 2.47.462.993.694 2.681.694 5.061v1.183h-7.233v-2.219c0-1.037-.092-1.695-.277-1.979s-.493-.427-.925-.427c-.468 0-.823.19-1.063.574-.24.383-.361.963-.361 1.739 0 1 .135 1.753.406 2.259.258.506.991 1.115 2.2 1.832 3.467 2.057 5.65 3.744 6.55 5.063.9 1.319 1.35 3.446 1.35 6.383.004 2.134-.246 3.705-.745 4.715zm18.876-21.012h-4.624v23.954h-7.788v-23.954h-4.605v-5.993h17.017v5.993zm18.409 23.954l-.418-5.383h-2.786l-.468 5.383h-8.051l3.972-29.947h11.255l4.453 29.947h-7.957zm26.983-9.933c0 2.271-.074 3.863-.222 4.782-.148.918-.586 1.862-1.313 2.83-.728.968-1.687 1.701-2.876 2.201-1.19.499-2.593.748-4.208.748-1.789 0-3.367-.295-4.735-.888-1.369-.592-2.393-1.361-3.07-2.312-.678-.949-1.08-1.951-1.202-3.006-.124-1.055-.186-3.271-.186-6.648v-17.722h7.787v22.456c0 1.307.071 2.143.213 2.507.142.362.428.546.86.546.493 0 .811-.201.952-.602.142-.402.213-1.348.213-2.84v-22.067h7.787v20.015zm19.412 6.991c-.5 1.013-1.464 1.859-2.895 2.546-1.431.684-3.095 1.024-4.994 1.024-2.084 0-3.863-.394-5.336-1.185-1.474-.787-2.439-1.793-2.895-3.015-.456-1.221-.685-2.953-.685-5.196v-1.961h7.232v3.644c0 1.122.102 1.844.305 2.165.204.318.564.479 1.083.479s.903-.202 1.156-.61c.252-.406.379-1.012.379-1.812 0-1.763-.24-2.916-.722-3.459-.493-.541-1.708-1.447-3.644-2.719-1.936-1.281-3.219-2.213-3.848-2.793s-1.15-1.381-1.563-2.405c-.413-1.022-.62-2.33-.62-3.921 0-2.293.292-3.971.879-5.03.585-1.062 1.532-1.89 2.839-2.489 1.307-.598 2.886-.896 4.736-.896 2.022 0 3.745.327 5.169.979 1.424.653 2.368 1.478 2.83 2.47.462.993.694 2.681.694 5.061v1.183h-7.232v-2.219c0-1.037-.092-1.695-.278-1.979-.185-.284-.493-.427-.925-.427-.468 0-.823.19-1.063.574-.24.383-.36.963-.36 1.739 0 1 .135 1.753.406 2.259.258.506.991 1.115 2.2 1.832 3.467 2.057 5.649 3.744 6.55 5.063.9 1.319 1.351 3.446 1.351 6.383.001 2.134-.249 3.705-.749 4.715zm18.876-21.012h-4.624v23.954h-7.787v-23.954h-4.606v-5.993h17.017v5.993zm9.563 23.954h-7.787v-29.947h7.787v29.947zm20.514 0h-6.826l-4.051-13.614v13.614h-6.511v-29.947h6.511l4.366 13.484v-13.484h6.511v29.947zm26.202-2.942c-.5 1.013-1.465 1.859-2.896 2.546-1.43.684-3.096 1.024-4.994 1.024-2.083 0-3.861-.394-5.336-1.185-1.475-.787-2.438-1.793-2.895-3.015-.457-1.221-.685-2.953-.685-5.196v-1.961h7.232v3.644c0 1.122.103 1.844.306 2.165.203.318.563.479 1.082.479s.901-.202 1.155-.61c.252-.406.38-1.012.38-1.812 0-1.763-.241-2.916-.722-3.459-.494-.541-1.709-1.447-3.645-2.719-1.938-1.281-3.219-2.213-3.848-2.793s-1.149-1.381-1.562-2.405c-.414-1.022-.621-2.33-.621-3.921 0-2.293.294-3.971.88-5.03.584-1.062 1.531-1.89 2.838-2.489 1.308-.598 2.887-.896 4.735-.896 2.022 0 3.746.327 5.171.979 1.424.653 2.366 1.478 2.829 2.47.462.993.694 2.681.694 5.061v1.183h-7.232v-2.219c0-1.037-.094-1.695-.277-1.979-.186-.284-.494-.427-.924-.427-.471 0-.824.19-1.064.574-.24.383-.36.963-.36 1.739 0 1 .136 1.753.405 2.259.258.506.99 1.115 2.199 1.832 3.468 2.057 5.65 3.744 6.552 5.063.899 1.319 1.351 3.446 1.351 6.383 0 2.134-.25 3.705-.748 4.715zm18.877-21.012h-4.625v23.954h-7.787v-23.954h-4.605v-5.993h17.018v5.993h-.001zm19.476 14.021c0 2.271-.074 3.863-.223 4.782-.146.918-.586 1.862-1.312 2.83-.729.968-1.688 1.701-2.876 2.201-1.19.499-2.594.748-4.208.748-1.789 0-3.367-.295-4.736-.888-1.367-.592-2.392-1.361-3.07-2.312-.678-.951-1.078-1.951-1.201-3.006s-.186-3.271-.186-6.648v-17.722h7.787v22.456c0 1.307.07 2.143.213 2.507.143.362.428.546.859.546.493 0 .811-.201.953-.602.143-.402.213-1.348.213-2.84v-22.067h7.787v20.015zm21.05 1.037c0 2.688-.127 4.484-.38 5.392s-.693 1.616-1.322 2.127c-.629.513-1.406.87-2.33 1.073-.926.203-2.318.306-4.181.306h-9.821v-29.947h5.825c3.761 0 6.306.173 7.631.519s2.335.912 3.024 1.701c.689.791 1.122 1.668 1.294 2.637.173.969.26 2.869.26 5.707v10.485zm10.69 8.896h-7.786v-29.947h7.786v29.947zm-.977-54.674c-2.042 4.285-5.987 7.879-11.837 10.779-5.85 2.899-12.656 4.351-20.422 4.351-8.521 0-15.796-1.673-21.82-5.019-6.025-3.344-9.973-7.603-11.838-12.777-1.865-5.172-2.799-12.516-2.799-22.026v-8.311h29.574v15.444c0 4.755.416 7.812 1.248 9.171.832 1.359 2.307 2.039 4.425 2.039s3.692-.863 4.728-2.587c1.032-1.726 1.551-4.286 1.551-7.683 0-7.473-.982-12.36-2.949-14.66-2.018-2.298-6.985-6.14-14.901-11.523-7.916-5.435-13.159-9.38-15.731-11.837-2.57-2.456-4.702-5.853-6.392-10.191-1.688-4.337-2.532-9.877-2.532-16.619 0-9.721 1.196-16.827 3.592-21.322 2.396-4.495 6.266-8.008 11.611-10.544 5.344-2.534 11.799-3.802 19.361-3.802 8.27 0 15.314 1.385 21.141 4.154 5.823 2.771 9.682 6.259 11.571 10.465 1.892 4.208 2.837 11.355 2.837 21.44v5.018h-29.572v-9.408c0-4.39-.379-7.185-1.136-8.388-.757-1.201-2.018-1.803-3.782-1.803-1.916 0-3.365.811-4.349 2.433-.981 1.622-1.476 4.079-1.476 7.373 0 4.236.553 7.427 1.658 9.571 1.056 2.145 4.056 4.731 8.998 7.759 14.176 8.72 23.103 15.875 26.783 21.467 3.68 5.593 5.521 14.607 5.521 27.046 0 9.042-1.021 15.706-3.063 19.99zm21.898 42.263c0 3.009-.071 5.14-.212 6.39-.144 1.252-.588 2.396-1.334 3.432-.744 1.035-1.754 1.832-3.023 2.387-1.271.555-2.75.832-4.439.832-1.603 0-3.043-.262-4.317-.786-1.276-.522-2.304-1.31-3.08-2.356s-1.239-2.189-1.387-3.422c-.148-1.234-.222-3.393-.222-6.475v-5.124c0-3.009.068-5.14.211-6.392.143-1.25.586-2.396 1.332-3.432.746-1.035 1.754-1.832 3.023-2.387 1.271-.555 2.75-.832 4.439-.832 1.603 0 3.043.264 4.318.786 1.276.524 2.305 1.312 3.079 2.358.777 1.049 1.24 2.188 1.388 3.422.147 1.232.224 3.392.224 6.475v5.124zm25.268-11.543h-4.625v23.954h-7.787v-23.954h-4.604v-5.993h17.018l-.002 5.993zm19.568 11.543c0 3.009-.071 5.14-.212 6.39-.143 1.252-.586 2.396-1.332 3.432s-1.755 1.832-3.025 2.387c-1.27.555-2.749.832-4.438.832-1.604 0-3.043-.262-4.318-.786-1.276-.522-2.304-1.31-3.081-2.356-.774-1.049-1.238-2.189-1.386-3.422-.149-1.234-.223-3.393-.223-6.475v-5.124c0-3.009.069-5.14.212-6.392.143-1.25.587-2.396 1.332-3.432.745-1.035 1.754-1.832 3.023-2.387 1.271-.555 2.75-.832 4.439-.832 1.603 0 3.042.264 4.318.786 1.276.524 2.304 1.312 3.079 2.358.777 1.049 1.24 2.188 1.389 3.422.146 1.232.222 3.392.222 6.475v5.124h.001zm20.607 2.478c0 2.271-.073 3.863-.222 4.782-.146.918-.586 1.862-1.312 2.83-.728.968-1.687 1.701-2.876 2.201-1.19.499-2.594.748-4.208.748-1.789 0-3.367-.295-4.736-.888-1.368-.592-2.393-1.361-3.07-2.312-.678-.949-1.079-1.951-1.202-3.006s-.185-3.271-.185-6.648v-17.722h7.788v22.456c0 1.307.068 2.143.212 2.507.142.362.428.546.86.546.491 0 .81-.201.951-.602.144-.402.213-1.348.213-2.84v-22.067h7.787v20.015zm19.218-4.163c.529.643.859 1.229.989 1.767.128.537.193 2.015.193 4.431v7.898h-7.232v-9.951c0-1.604-.127-2.598-.379-2.979-.253-.383-.916-.574-1.987-.574v13.504h-7.787v-29.947h5.512c3.674 0 6.162.143 7.464.426 1.3.283 2.361 1.008 3.183 2.174.818 1.166 1.229 3.023 1.229 5.576 0 2.331-.29 3.896-.87 4.698-.579.802-1.72 1.283-3.421 1.442 1.54.383 2.575.896 3.106 1.535zm3.965-28.143h-23.068v-26.163h23.068v26.163zM140.594 32.02c-3.244 24.578-5.281 42.549-6.111 53.91h10.961c-1.612-14.538-3.228-32.508-4.85-53.91zM266.078 149.438c-.309-.178-.889-.269-1.738-.269v19.7c1.121 0 1.812-.225 2.071-.676.259-.449.389-1.674.389-3.672v-11.635c0-1.355-.044-2.226-.13-2.607-.087-.381-.284-.661-.592-.841zM90.332 163.303h2.681c-.394-3.392-.79-7.584-1.187-12.578-.793 5.734-1.292 9.925-1.494 12.578zM382.443 149.17v6.66c.875 0 1.487-.12 1.841-.361.351-.24.525-1.02.525-2.34v-1.646c0-.949-.169-1.572-.509-1.868-.337-.297-.957-.445-1.857-.445z"/></g></svg>