<svg xmlns="http://www.w3.org/2000/svg" width="40" height="40"><path fill-rule="evenodd" clip-rule="evenodd" fill="#010101" d="M10.244 13.087c.697-1.935 1.295-3.754 2.009-5.519.217-.544.707-1.025 1.168-1.413 1.973-1.619 4.191-2.678 6.767-2.915.467-.049.911-.365 1.359-.562 2.768 1.071 5.307 2.422 7.24 4.796 2.066 2.522 1.291 5.448 1.522 8.292 2.443-3.65 3.984-7.678 5.415-11.705l.43.118.14.105.075.167c.025 10.078.044 20.164.061 30.242 0 .307-.066.613-.11.984h-31.551v-31.67c2.116 3.109 4.064 5.952 5.475 9.08m4.413 8.354c1.941 4.024 3.738 7.74 5.645 11.661.478-.538.997-.984 1.343-1.531 1.193-1.837 2.393-3.67 3.464-5.573.945-1.708 1.719-3.506 2.58-5.266-4.18 2.748-8.348 2.956-13.032.709"/></svg>